<?xml version="1.0" standalone="no"?>
<!DOCTYPE svg PUBLIC "-//W3C//DTD SVG 20010904//EN"
 "http://www.w3.org/TR/2001/REC-SVG-20010904/DTD/svg10.dtd">
<svg version="1.0" xmlns="http://www.w3.org/2000/svg"
 width="840.000000pt" height="859.000000pt" viewBox="0 0 840.000000 859.000000"
 preserveAspectRatio="xMidYMid meet">

<g transform="translate(0.000000,859.000000) scale(0.100000,-0.100000)"
fill="#000000" stroke="none">
<path d="M4011 8559 c-788 -83 -1458 -672 -1631 -1434 -12 -55 -24 -106 -26
-113 -3 -10 -24 -12 -101 -5 -88 7 -830 7 -1568 1 l-270 -3 -3 -3488 -2 -3487
2667 3 c2943 3 2700 -2 2978 64 461 109 913 370 1240 715 401 424 638 957 684
1537 7 91 11 881 11 2392 l0 2257 -142 7 c-161 8 -1665 -1 -1744 -11 l-51 -6
-17 89 c-39 197 -144 459 -251 624 -388 601 -1070 931 -1774 858z m469 -519
c259 -53 480 -171 677 -363 56 -54 129 -137 163 -185 103 -144 196 -357 225
-516 7 -36 7 -36 -28 -36 -57 0 -329 -39 -465 -66 -271 -55 -482 -119 -710
-216 l-142 -61 -91 42 c-274 128 -559 218 -849 271 -107 19 -342 50 -382 50
-24 0 -23 21 7 126 34 119 129 311 205 414 233 317 572 512 980 564 82 10 308
-3 410 -24z m-1890 -1359 c688 -56 1110 -163 1538 -389 l73 -39 127 63 c164
81 344 145 557 199 305 78 510 110 955 151 271 25 324 27 1063 31 l777 5 0
-2165 c0 -2357 2 -2265 -56 -2507 -77 -325 -237 -645 -446 -895 -375 -450
-898 -732 -1470 -794 -65 -8 -898 -11 -2548 -11 l-2450 0 0 3185 0 3184 123 4
c67 2 430 3 807 2 602 -2 717 -5 950 -24z"/>
<path d="M2386 5830 c-225 -26 -407 -80 -611 -181 -400 -197 -707 -535 -871
-959 -77 -201 -109 -382 -109 -625 0 -198 8 -265 52 -440 106 -428 397 -825
778 -1062 472 -294 1064 -351 1574 -151 l74 29 27 -28 c15 -15 224 -236 464
-490 l436 -462 437 462 c240 254 448 474 462 490 l27 27 62 -25 c169 -69 377
-113 577 -122 603 -27 1186 264 1533 765 416 601 416 1413 0 2014 -256 370
-649 633 -1086 728 -326 71 -697 43 -1002 -74 -248 -96 -433 -217 -626 -410
-154 -154 -245 -279 -335 -458 l-50 -99 -52 103 c-259 509 -731 854 -1302 953
-111 19 -353 27 -459 15z m320 -301 c278 -28 554 -139 766 -307 290 -232 481
-553 543 -917 22 -131 23 -348 0 -480 -48 -284 -185 -558 -385 -768 -171 -180
-356 -300 -586 -380 -639 -223 -1346 22 -1716 593 -77 118 -113 193 -158 329
-91 271 -102 535 -35 817 133 560 605 1001 1175 1098 162 27 243 30 396 15z
m3410 -20 c355 -68 689 -278 902 -567 367 -497 386 -1169 49 -1680 -299 -453
-803 -702 -1339 -661 -375 28 -697 181 -959 457 -338 355 -473 844 -368 1329
131 607 652 1072 1279 1142 115 13 313 4 436 -20z m-1870 -2231 c26 -51 66
-124 90 -161 24 -37 44 -69 44 -70 0 -1 -82 -2 -183 -2 l-183 0 49 75 c27 41
68 114 90 162 23 48 43 87 44 88 2 0 24 -42 49 -92z m169 -473 c176 -49 354
-175 421 -300 l17 -33 -323 -341 c-177 -188 -326 -341 -330 -341 -12 0 -644
670 -648 686 -2 8 12 36 32 63 98 134 262 235 446 276 84 19 300 13 385 -10z"/>
<path d="M2710 4975 c0 -2 14 -26 30 -52 89 -140 92 -331 7 -475 -63 -108
-201 -199 -332 -219 -173 -27 -357 59 -452 213 l-38 61 -37 -79 c-65 -136 -81
-216 -81 -394 0 -183 16 -259 89 -410 144 -299 419 -493 756 -532 206 -23 440
33 613 147 144 96 292 271 356 424 120 285 91 626 -73 878 -154 235 -387 388
-657 428 -95 15 -181 19 -181 10z"/>
<path d="M5624 4955 c9 -14 23 -35 31 -48 57 -88 72 -256 34 -369 -110 -328
-523 -421 -763 -173 -23 23 -53 64 -66 89 -14 25 -28 46 -31 46 -13 0 -72
-148 -94 -235 -66 -261 -23 -531 120 -750 61 -95 227 -252 318 -304 555 -312
1233 -27 1398 589 33 119 33 347 1 465 -73 266 -255 491 -497 612 -117 60
-299 103 -428 103 l-39 0 16 -25z"/>
</g>
</svg>
